<?xml version="1.0"?>
<!--
Outliner: Simple Library for Modern Browsers
Release: Version 0.01 on 2013-11-17
License: The MIT license
Source: https://github.com/zohooo/inliner
-->
<svg version="1.1" xmlns="http://www.w3.org/2000/svg" width="480" height="480" viewBox="0 0 480 480">
<g stroke="#333" fill="#333">
  <g id="icon-1-1" transform="translate(0,0)">
    <line x1="10" y1="10" x2="86" y2="86" stroke-width="12"/>
    <line x1="10" y1="86" x2="86" y2="10" stroke-width="12"/>
  </g>
  <g id="icon-1-2" transform="translate(96,0)">
    <rect x="10" y="10" width="76" height="76" stroke-width="8" fill="none"/>
  </g>
  <g id="icon-1-3" transform="translate(192,0)">
    <circle id="circle" cx="48" cy="48" r="40" stroke-width="8" fill="none"/>
  </g>
  <g id="icon-1-4" transform="translate(288,0)">
    <rect x="10" y="10" width="76" height="76" stroke-width="6" fill="none"/>
    <line x1="48" y1="10" x2="48" y2="86" stroke-width="6"/>
  </g>
  <g id="icon-1-5" transform="translate(384,0)">
    <rect x="10" y="10" width="76" height="76" stroke-width="6" fill="none"/>
    <polyline points="48,10 48,48 86,48" stroke-width="6" fill="none"/>
  </g>
  <g id="icon-2-1" transform="translate(0,96)">
    <rect x="10" y="66" width="76" height="20" stroke-width="6" fill="none"/>
    <polyline points="10,66 20,10 76,10 86,66" r="10" stroke-width="6" fill="none"/>
    <rect x="62" y="74" width="6" height="4"/>
    <rect x="74" y="74" width="6" height="4"/>
  </g>
  <g id="icon-2-2" transform="translate(96,96)">
    <path stroke-width="6" fill="none" d="M 20,86 C 0.74188219,68.099935 17.072072,51.576723 34.411633,52.308725 23.971543,36.104817 43.10995,3.9380193 66.411633,34.926175 81.101131,33.37289 83.411137,46.924993 72.205817,54.085011 91.482207,56.883767 88.554094,86 76,86 z"/>
  </g>
  <g id="icon-2-3" transform="translate(192,96)">
  </g>
  <g id="icon-3-1" transform="translate(0,192)">
    <polygon points="24,64 48,32 72,64"/>
  </g>
  <g id="icon-3-2" transform="translate(96,192)">
    <polygon points="24,32 48,64 72,32"/>
  </g>
</g>
</svg>
